<?xml version="1.0" encoding="utf-8"?>
<!-- Generator: Adobe Illustrator 28.0.0, SVG Export Plug-In . SVG Version: 6.00 Build 0)  -->
<svg version="1.1" id="Layer_1" xmlns="http://www.w3.org/2000/svg" xmlns:xlink="http://www.w3.org/1999/xlink" x="0px" y="0px"
	 viewBox="0 0 215.3 262.8" style="enable-background:new 0 0 215.3 262.8;" xml:space="preserve">
<style type="text/css">
	.st0{display:none;}
	.st1{display:inline;}
	
		.st2{display:inline;clip-path:url(#SVGID_00000098201529939442939580000003654353624657767334_);fill:#FFFF00;stroke:#000000;stroke-miterlimit:10;}
	.st3{fill:none;}
	.st4{fill:#B59357;}
	.st5{fill:#D8B368;}
	.st6{fill:#E8C574;}
	.st7{fill:#CCA860;}
	.st8{fill:#5E401B;}
	.st9{fill:#77582F;}
	.st10{fill:#CB0200;}
	.st11{fill:none;stroke:#000000;stroke-width:0.5;stroke-linecap:round;stroke-linejoin:round;}
	.st12{opacity:0.2;}
	.st13{fill:#FFFFFF;}
	.st14{clip-path:url(#SVGID_00000017480079211099563040000002657197169734875071_);}
	.st15{fill:#D25DA3;stroke:#000000;stroke-miterlimit:10;}
	.st16{fill:#B34791;stroke:#000000;stroke-miterlimit:10;}
	.st17{fill:#D68FBC;stroke:#000000;stroke-miterlimit:10;}
	.st18{fill:none;stroke:#000000;stroke-width:0.75;stroke-miterlimit:10;}
	.st19{clip-path:url(#SVGID_00000166667920055486795990000009603472339282154409_);}
	.st20{fill:#001FFF;stroke:#000000;stroke-miterlimit:10;}
</style>
<path class="st11" d="M213.2,75.1c-3.4-20.2-25.6-27.8-31.5-29.9c0,0-1.2-1.7-0.5-3.1c0.6-1.2,1.8-1.8,2.1-2.8
	c0.1-0.3,0.1-0.6,0.1-0.9v-5.3c0-1.1-0.6-2.2-1.7-3.3V15.3c0-8.3-33.1-15-73.9-15S33.9,7,33.9,15.3v14.1c-1.5,1.2-2.3,2.5-2.3,3.8
	v5.3c0,0.4,0.1,0.8,0.2,1.1c0.3,0.8,1.3,1.3,1.7,2.3c0.7,1.6,0.4,3.6,0.4,3.6C27.3,47.8,5.4,55.5,2,75.1
	c-3.3,19.3-1.2,94.6-0.3,122.8c0.3,8.2,2.8,16.2,7.4,23c5.1,7.4,13.1,16.5,24.8,22.9v3.7c0,4.8,11,9,28.1,11.8
	c12.6,2,28.5,3.2,45.8,3.2c17.3,0,33.2-1.2,45.8-3.2c17.1-2.8,28.1-7,28.1-11.8v-3.9c11.5-6.4,19.4-15.3,24.3-22.6
	c4.7-6.8,7.2-14.8,7.4-23C214.4,169.8,216.5,94.4,213.2,75.1z"/>
</svg>
